<svg width="603" height="573" viewBox="0 0 603 573" fill="none" xmlns="http://www.w3.org/2000/svg">
<g clip-path="url(#clip0_49_58)">
<path d="M307.702 566.923C304.76 566.923 301.789 566.875 298.873 566.783L298.939 564.629C303.127 564.762 307.4 564.799 311.607 564.74L311.636 566.895C310.327 566.913 309.015 566.922 307.702 566.923ZM324.392 566.423L324.268 564.271C328.462 564.02 332.709 563.666 336.893 563.221L337.114 565.364C332.899 565.813 328.619 566.17 324.392 566.423ZM286.129 566.087C281.9 565.758 277.627 565.326 273.427 564.802L273.685 562.663C277.853 563.182 282.093 563.611 286.29 563.938L286.129 566.087ZM349.774 563.717L349.456 561.586C353.623 560.943 357.822 560.197 361.932 559.367L362.345 561.48C358.202 562.317 353.973 563.069 349.774 563.717ZM260.798 562.928C256.62 562.208 252.403 561.381 248.264 560.467L248.714 558.36C252.821 559.268 257.006 560.089 261.152 560.802L260.798 562.928ZM374.805 558.658L374.296 556.566C378.386 555.537 382.499 554.401 386.521 553.188L387.123 555.255C383.07 556.477 378.926 557.623 374.805 558.658ZM235.857 557.422C231.759 556.314 227.635 555.095 223.6 553.798L224.238 551.743C228.243 553.03 232.335 554.24 236.401 555.338L235.857 557.422ZM399.273 551.278L398.578 549.242C402.547 547.839 406.539 546.322 410.445 544.733L411.231 546.735C407.296 548.336 403.274 549.864 399.273 551.278ZM211.489 549.589C207.509 548.102 203.504 546.497 199.587 544.819L200.41 542.832C204.297 544.497 208.271 546.09 212.221 547.566L211.489 549.589ZM422.944 541.648L422.066 539.686C425.878 537.925 429.709 536.045 433.453 534.099L434.418 536.019C430.645 537.98 426.784 539.873 422.944 541.648ZM187.917 539.499C184.092 537.645 180.252 535.674 176.505 533.638L177.504 531.737C181.223 533.757 185.033 535.714 188.829 537.554L187.917 539.499ZM445.627 529.859L444.578 527.987C448.233 525.866 451.882 523.637 455.421 521.361L456.554 523.181C452.988 525.476 449.312 527.723 445.627 529.859ZM165.373 527.253C161.734 525.052 158.09 522.731 154.543 520.355L155.71 518.556C159.23 520.913 162.846 523.216 166.457 525.4L165.373 527.253ZM467.171 516.001L465.958 514.235C469.4 511.79 472.835 509.229 476.167 506.625L477.459 508.334C474.102 510.958 470.64 513.538 467.171 516.001ZM144.038 512.965C140.616 510.438 137.198 507.791 133.877 505.096L135.2 503.412C138.495 506.086 141.888 508.713 145.283 511.22L144.038 512.965ZM487.394 500.198L486.028 498.55C489.236 495.797 492.428 492.929 495.519 490.024L496.957 491.607C493.845 494.534 490.627 497.425 487.394 500.198ZM124.082 496.765C120.895 493.927 117.729 490.976 114.672 487.992L116.14 486.436C119.174 489.398 122.316 492.327 125.479 495.144L124.082 496.765ZM506.128 482.58L504.619 481.066C507.577 478.019 510.502 474.866 513.313 471.694L514.888 473.136C512.056 476.333 509.109 479.509 506.128 482.58ZM105.667 478.795C102.743 475.669 99.8549 472.437 97.0836 469.191L98.685 467.779C101.435 471.001 104.301 474.207 107.203 477.309L105.667 478.795ZM523.217 463.296L521.579 461.928C524.251 458.622 526.881 455.21 529.4 451.787L531.098 453.077C528.56 456.527 525.909 459.966 523.217 463.296ZM88.9411 459.204C86.3153 455.83 83.7298 452.348 81.2562 448.852L82.9767 447.593C85.4317 451.061 87.9975 454.518 90.6037 457.867L88.9411 459.204ZM538.512 442.501L536.758 441.291C539.123 437.751 541.439 434.108 543.64 430.461L545.448 431.589C543.227 435.264 540.894 438.935 538.512 442.501ZM74.0459 438.158C71.7358 434.558 69.4749 430.853 67.3253 427.143L69.1514 426.049C71.285 429.73 73.5288 433.407 75.8213 436.979L74.0459 438.158ZM551.885 420.363L550.03 419.321C552.065 415.576 554.042 411.73 555.909 407.889L557.809 408.845C555.929 412.714 553.936 416.59 551.885 420.363ZM61.1083 415.831C59.1311 412.031 57.2139 408.132 55.41 404.244L57.3272 403.324C59.1176 407.183 61.0198 411.052 62.9821 414.822L61.1083 415.831ZM563.207 397.06L561.265 396.195C562.954 392.272 564.577 388.254 566.087 384.255L568.066 385.027C566.545 389.058 564.909 393.106 563.207 397.06ZM50.2416 392.409C48.6163 388.443 47.0598 384.385 45.6157 380.347L47.6085 379.611C49.0413 383.618 50.5858 387.644 52.1981 391.579L50.2416 392.409ZM572.375 372.776L570.362 372.098C571.685 368.044 572.934 363.902 574.073 359.783L576.114 360.366C574.966 364.516 573.707 368.692 572.375 372.776ZM41.5318 368.052C40.2704 363.944 39.0851 359.747 38.009 355.577L40.0597 355.03C41.1275 359.168 42.304 363.333 43.5556 367.41L41.5318 368.052ZM579.285 347.795L577.22 347.306C578.169 343.152 579.036 338.909 579.799 334.698L581.884 335.087C581.116 339.332 580.241 343.607 579.285 347.795ZM35.0564 342.951C34.1723 338.741 33.3721 334.452 32.6785 330.2L34.7697 329.847C35.4586 334.066 36.2526 338.323 37.13 342.5L35.0564 342.951ZM583.905 322.275L581.803 321.982C582.374 317.76 582.855 313.456 583.235 309.186L585.347 309.38C584.964 313.683 584.478 318.02 583.905 322.275ZM30.8783 317.353C30.3783 313.086 29.9678 308.74 29.6578 304.436L31.7727 304.278C32.0797 308.551 32.4876 312.863 32.9839 317.098L30.8783 317.353ZM586.21 296.434L584.092 296.337C584.281 292.066 584.377 287.734 584.377 283.461H586.497C586.497 287.766 586.401 292.131 586.21 296.434ZM29.0155 291.474C28.943 288.831 28.9063 286.135 28.9058 283.461C28.9058 281.803 28.9197 280.147 28.9477 278.494L31.0678 278.532C31.0398 280.172 31.0259 281.815 31.0259 283.461C31.0264 286.115 31.0632 288.791 31.1346 291.415L29.0155 291.474ZM584.361 280.454C584.318 276.18 584.177 271.849 583.944 267.579L586.06 267.459C586.295 271.761 586.437 276.126 586.482 280.431L584.361 280.454ZM31.571 265.663L29.4551 265.529C29.7196 261.222 30.085 256.872 30.54 252.599L32.6477 252.831C32.1958 257.072 31.834 261.389 31.571 265.663ZM582.953 254.74C582.529 250.491 582.002 246.191 581.387 241.96L583.485 241.645C584.104 245.908 584.635 250.241 585.062 254.522L582.953 254.74ZM34.2983 240.063L32.203 239.733C32.8526 235.469 33.6073 231.171 34.4463 226.957L36.524 227.384C35.6917 231.566 34.9427 235.831 34.2983 240.063ZM579.248 229.268C578.439 225.063 577.527 220.83 576.535 216.687L578.595 216.178C579.594 220.352 580.514 224.618 581.328 228.854L579.248 229.268ZM39.3202 214.824L37.2637 214.3C38.2932 210.125 39.4335 205.915 40.653 201.787L42.6831 202.407C41.4734 206.503 40.3419 210.681 39.3202 214.824ZM573.256 204.247C572.074 200.142 570.782 196.014 569.416 191.974L571.421 191.273C572.797 195.344 574.1 199.505 575.291 203.641L573.256 204.247ZM46.6185 190.127L44.6185 189.413C46.0274 185.338 47.5487 181.243 49.1398 177.243L51.1057 178.052C49.5264 182.021 48.0166 186.084 46.6185 190.127ZM565.023 179.894C563.476 175.927 561.82 171.946 560.1 168.061L562.033 167.175C563.767 171.091 565.436 175.103 566.994 179.1L565.023 179.894ZM56.1341 166.203L54.2076 165.303C55.9783 161.383 57.8629 157.451 59.8091 153.618L61.6932 154.606C59.7615 158.41 57.8914 162.312 56.1341 166.203ZM554.647 156.465C552.749 152.659 550.739 148.846 548.672 145.132L550.516 144.07C552.6 147.813 554.625 151.655 556.537 155.49L554.647 156.465ZM67.7704 143.284L65.9329 142.208C68.0478 138.474 70.2782 134.737 72.5624 131.1L74.3492 132.26C72.0826 135.869 69.8688 139.578 67.7704 143.284ZM542.191 134.085C539.951 130.459 537.605 126.846 535.219 123.348L536.96 122.119C539.365 125.645 541.729 129.284 543.986 132.938L542.191 134.085ZM81.4166 121.557L79.6837 120.315C82.1278 116.79 84.6832 113.277 87.2806 109.873L88.9556 111.194C86.3784 114.573 83.8416 118.059 81.4166 121.557ZM527.77 112.943C525.215 109.54 522.554 106.158 519.859 102.89L521.485 101.505C524.199 104.799 526.88 108.206 529.455 111.634L527.77 112.943ZM96.95 101.196L95.3361 99.798C98.0789 96.5225 100.938 93.2623 103.833 90.1078L105.382 91.5782C102.51 94.709 99.6727 97.9451 96.95 101.196ZM511.507 93.2113C508.659 90.0594 505.705 86.9355 502.728 83.9273L504.223 82.398C507.223 85.4298 510.199 88.5769 513.068 91.7524L511.507 93.2113ZM114.234 82.3643L112.752 80.8234C115.783 77.8079 118.92 74.8266 122.075 71.9626L123.487 73.5709C120.356 76.4128 117.243 79.3714 114.234 82.3643ZM493.542 75.0571C490.421 72.1789 487.198 69.3402 483.964 66.6199L485.316 64.959C488.574 67.6999 491.822 70.5601 494.967 73.4604L493.542 75.0571ZM133.122 65.2148L131.784 63.5433C135.063 60.8283 138.452 58.1506 141.857 55.5846L143.12 57.316C139.74 59.8632 136.377 62.5202 133.122 65.2148ZM474.018 58.6327C470.651 56.0545 467.186 53.5248 463.72 51.1139L464.917 49.3351C468.409 51.7639 471.9 54.3126 475.294 56.9108L474.018 58.6327ZM153.457 49.8914L152.273 48.1031C155.783 45.7023 159.396 43.3515 163.012 41.1143L164.114 42.9562C160.525 45.176 156.94 47.5095 153.457 49.8914ZM453.092 44.0809C449.509 41.8264 445.83 39.6287 442.157 37.5478L443.188 35.6648C446.89 37.7615 450.598 39.9765 454.208 42.2474L453.092 44.0809ZM175.069 36.5252L174.051 34.6338C177.764 32.5682 181.571 30.5642 185.366 28.6764L186.298 30.6131C182.532 32.4861 178.754 34.4749 175.069 36.5252ZM430.936 31.5309C427.163 29.62 423.299 27.7738 419.45 26.044L420.307 24.0726C424.186 25.8156 428.081 27.676 431.882 29.6016L430.936 31.5309ZM197.777 25.232L196.935 23.2543C200.815 21.5444 204.784 19.9046 208.731 18.38L209.484 20.3956C205.566 21.9081 201.628 23.5353 197.777 25.232ZM407.724 21.0992C403.798 19.5515 399.781 18.0747 395.782 16.7107L396.457 14.6667C400.486 16.0418 404.535 17.5296 408.49 19.0899L407.724 21.0992ZM221.426 16.1018L220.765 14.0535C224.794 12.7105 228.905 11.4459 232.983 10.296L233.55 12.3726C229.503 13.5141 225.424 14.7687 221.426 16.1018ZM383.682 12.8968C379.639 11.7248 375.514 10.6333 371.424 9.65285L371.911 7.55514C376.033 8.54295 380.188 9.64285 384.264 10.8233L383.682 12.8968ZM245.83 9.21551L245.358 7.11413C249.489 6.15472 253.697 5.2806 257.864 4.51646L258.241 6.63732C254.104 7.39619 249.929 8.26349 245.83 9.21551ZM359.032 6.98782C354.903 6.2 350.698 5.49903 346.533 4.90431L346.827 2.76978C351.024 3.3692 355.263 4.07545 359.423 4.86906L359.032 6.98782ZM270.755 4.64225L270.474 2.50558C274.671 1.93616 278.939 1.45726 283.16 1.08363L283.344 3.23081C279.156 3.60231 274.921 4.07704 270.755 4.64225ZM333.952 3.40551C329.776 3.00554 325.525 2.69714 321.317 2.49032L321.42 0.336852C325.659 0.545738 329.942 0.856302 334.15 1.25939L333.952 3.40551ZM295.986 2.40401L295.897 0.250545C299.794 0.0852849 303.765 0.00108453 307.702 3.05176e-05L308.661 0.00156571L308.655 2.15718L307.702 2.15559C303.795 2.15664 299.853 2.24034 295.986 2.40401Z" fill="#E6E6E6"/>
<path d="M308.368 565.451V447.579C308.37 445.928 309.016 444.345 310.164 443.177C311.313 442.009 312.87 441.353 314.494 441.351H328.404C330.028 441.353 331.585 442.009 332.733 443.177C333.882 444.345 334.528 445.928 334.53 447.579V565.451C334.528 567.102 333.882 568.685 332.733 569.853C331.585 571.02 330.028 571.677 328.404 571.679H314.494C312.87 571.677 311.313 571.02 310.164 569.853C309.016 568.685 308.37 567.102 308.368 565.451Z" fill="#2F2E41"/>
<path d="M280.856 565.451V447.579C280.858 445.928 281.504 444.345 282.653 443.177C283.801 442.009 285.358 441.353 286.982 441.351H300.892C302.516 441.353 304.073 442.009 305.222 443.177C306.37 444.345 307.016 445.928 307.018 447.579V565.451C307.016 567.102 306.37 568.685 305.222 569.853C304.073 571.02 302.516 571.677 300.892 571.679H286.982C285.358 571.677 283.801 571.02 282.653 569.853C281.504 568.685 280.858 567.102 280.856 565.451Z" fill="#2F2E41"/>
<path d="M335.852 408.664H279.533C276.411 408.664 273.879 411.238 273.879 414.414V479.097C273.879 482.272 276.411 484.846 279.533 484.846H335.852C338.975 484.846 341.507 482.272 341.507 479.097V414.414C341.507 411.238 338.975 408.664 335.852 408.664Z" fill="#2F2E41"/>
<path d="M213.013 223.475C213.013 223.475 184.59 236.9 160.539 245.803C145.613 211.547 124.111 212.829 124.111 212.829L111.075 221.955L113.426 235.643L112.785 258.023L109.366 269.756L114.272 270.658L117.044 271.169L117.462 270.785C116.77 273.571 116.49 276.447 116.632 279.317L239.939 259.762C239.939 259.762 235.665 239.555 213.013 223.475Z" fill="#E6E6E6"/>
<path d="M176.601 399.668L184.868 411.042C186.724 413.595 190.265 414.135 192.776 412.248L286.009 342.191C288.52 340.304 289.052 336.704 287.196 334.15L278.928 322.777C277.072 320.223 273.532 319.683 271.02 321.57L177.788 391.628C175.276 393.515 174.745 397.115 176.601 399.668Z" fill="#6C63FF"/>
<path d="M335.466 318.913L323.179 325.543C320.42 327.031 319.371 330.512 320.835 333.316L375.179 437.435C376.643 440.24 380.066 441.307 382.825 439.818L395.111 433.189C397.87 431.7 398.92 428.22 397.456 425.415L343.111 321.297C341.647 318.492 338.224 317.425 335.466 318.913Z" fill="#6C63FF"/>
<path d="M369.91 365.122L349.843 378.648C346.777 380.303 343.104 379.37 341.64 376.565L319.479 334.107C318.015 331.302 319.314 327.687 322.381 326.032L336.039 318.663C339.106 317.008 342.778 317.941 344.242 320.745L372.812 357.048C374.276 359.853 372.977 363.468 369.91 365.122Z" fill="#CCCCCC"/>
<path d="M233.164 352.685L246.207 370.295C247.233 371.407 248.652 372.059 250.151 372.107C251.65 372.155 253.106 371.596 254.2 370.553L288.67 337.657C289.764 336.613 290.405 335.171 290.452 333.647C290.499 332.123 289.95 330.642 288.923 329.53L279.404 319.218C278.377 318.107 276.959 317.455 275.46 317.407C273.961 317.359 272.505 317.918 271.411 318.961L233.417 344.558C232.324 345.602 231.683 347.044 231.636 348.568C231.588 350.092 232.138 351.573 233.164 352.685Z" fill="#CCCCCC"/>
<path d="M339.294 317.219H276.093C272.97 317.219 270.438 319.793 270.438 322.968V459.488C270.438 462.663 272.97 465.237 276.093 465.237H339.294C342.417 465.237 344.948 462.663 344.948 459.488V322.968C344.948 319.793 342.417 317.219 339.294 317.219Z" fill="#CCCCCC"/>
<path d="M307.324 308.31C335.18 308.31 357.762 285.35 357.762 257.028C357.762 228.706 335.18 205.746 307.324 205.746C279.468 205.746 256.886 228.706 256.886 257.028C256.886 285.35 279.468 308.31 307.324 308.31Z" fill="#F4D644"/>
<path d="M313.202 274.15C310.086 274.061 306.208 273.951 303.223 271.733C302.333 271.045 301.603 270.168 301.082 269.163C300.561 268.158 300.262 267.049 300.207 265.914C300.153 265.107 300.283 264.299 300.588 263.553C300.892 262.806 301.362 262.141 301.96 261.609C303.519 260.269 305.798 259.953 308.254 260.689L305.71 241.787L307.578 241.527L310.567 263.748L309.008 263.02C307.202 262.176 304.72 261.748 303.177 263.073C302.799 263.419 302.504 263.85 302.315 264.331C302.127 264.812 302.05 265.33 302.091 265.846C302.137 266.691 302.361 267.516 302.748 268.265C303.135 269.013 303.676 269.668 304.335 270.185C306.657 271.911 309.749 272.135 313.256 272.234L313.202 274.15Z" fill="#2F2E41"/>
<path d="M296.476 243.417H286.324V245.333H296.476V243.417Z" fill="#2F2E41"/>
<path d="M328.517 243.417H318.366V245.333H328.517V243.417Z" fill="#2F2E41"/>
<path d="M274.004 216.954C265.829 216.006 259.498 208.042 258.803 199.962C257.975 190.349 263.481 181.219 271.035 175.825C278.935 170.184 288.777 167.828 298.299 167.31C316.876 166.37 335.132 172.488 349.518 184.475C356.654 190.5 363.318 198.176 365.844 207.447C368.037 215.498 366.252 224.62 359.883 230.259C358.308 231.641 356.467 232.675 354.479 233.298C352.49 233.92 350.396 234.117 348.329 233.876C343.387 233.354 338.827 230.712 334.88 227.794C327.203 222.118 320.899 214.211 311.545 211.245C304.687 209.071 295.786 210.985 291.595 217.291C290.644 218.735 290.028 220.379 289.792 222.1C289.706 222.467 289.76 222.854 289.943 223.182C290.126 223.51 290.425 223.755 290.78 223.868C291.141 223.967 291.526 223.917 291.852 223.729C292.178 223.541 292.417 223.23 292.519 222.864C293.619 214.921 303.225 211.957 309.965 213.771C319.793 216.416 326.391 225.333 334.455 230.998C338.694 233.977 343.516 236.358 348.716 236.786C353.198 237.143 357.647 235.754 361.159 232.899C368.047 227.369 370.682 217.856 369.159 209.292C367.395 199.374 360.829 190.874 353.626 184.293C339.022 171.093 320.063 163.972 300.526 164.349C290.561 164.582 280.164 166.673 271.579 172.028C263.252 177.222 256.816 185.912 255.975 196.014C255.234 204.905 259.926 214.204 267.98 218.099C269.879 219.014 271.915 219.598 274.004 219.828C275.809 220.038 275.794 217.161 274.004 216.954Z" fill="#2F2E41"/>
<path d="M116.952 269.431L122.936 267.475C123.577 266.226 122.404 267.027 122.964 265.813C138.103 232.975 124.111 212.828 124.111 212.828L113.288 220.406C113.261 220.343 113.239 220.279 113.212 220.216C113.212 220.216 111.289 215.871 108.297 219.13C108.297 219.13 117.7 242.379 107.229 271.277L119.41 276.927L124.111 271.277L124.218 270.734L115.804 269.957L116.952 269.431Z" fill="#CCCCCC"/>
<path d="M287.595 391.434C239.512 380.57 194.741 403.059 194.741 403.059L194.619 402.948L176.789 386.763L107.122 271.169L124.111 271.278C171.34 242.596 237.802 246.507 237.802 246.507C266.439 279.534 287.595 391.434 287.595 391.434Z" fill="#3F3D56"/>
<path opacity="0.1" d="M194.619 402.948L176.789 386.763L107.122 271.169L124.111 271.278C124.111 271.278 191.826 362.208 194.619 402.948Z" fill="black"/>
<path d="M202.444 312.756C217 308.216 226.499 296.91 223.661 287.502C220.823 278.095 206.723 274.149 192.167 278.688C177.611 283.227 168.111 294.533 170.949 303.941C173.787 313.348 187.888 317.295 202.444 312.756Z" fill="#6C63FF"/>
<path d="M53.6138 215.122C49.7745 229.552 36.6242 238.488 36.6242 238.488C36.6242 238.488 29.6986 224.03 33.5378 209.6C37.377 195.17 50.5274 186.234 50.5274 186.234C50.5274 186.234 57.453 200.692 53.6138 215.122Z" fill="#CCCCCC"/>
<path d="M18.6872 215.122C22.5265 229.552 35.6768 238.488 35.6768 238.488C35.6768 238.488 42.6025 224.03 38.7632 209.6C34.924 195.17 21.7737 186.234 21.7737 186.234C21.7737 186.234 14.848 200.692 18.6872 215.122Z" fill="#CCCCCC"/>
<path d="M24.3288 212.021C34.8638 222.448 36.1505 238.477 36.1505 238.477C36.1505 238.477 20.3567 237.6 9.82175 227.173C-0.713239 216.746 -2 200.717 -2 200.717C-2 200.717 13.7938 201.594 24.3288 212.021Z" fill="#3F3D56"/>
<path d="M47.9721 212.021C37.4372 222.448 36.1504 238.477 36.1504 238.477C36.1504 238.477 51.9442 237.6 62.4792 227.173C73.0141 216.746 74.3009 200.717 74.3009 200.717C74.3009 200.717 58.5071 201.594 47.9721 212.021Z" fill="#3F3D56"/>
<path d="M582.313 378.015C578.473 392.445 565.323 401.381 565.323 401.381C565.323 401.381 558.397 386.923 562.237 372.493C566.076 358.063 579.226 349.127 579.226 349.127C579.226 349.127 586.152 363.585 582.313 378.015Z" fill="#CCCCCC"/>
<path d="M547.386 378.015C551.225 392.445 564.376 401.381 564.376 401.381C564.376 401.381 571.301 386.923 567.462 372.493C563.623 358.063 550.472 349.127 550.472 349.127C550.472 349.127 543.547 363.585 547.386 378.015Z" fill="#CCCCCC"/>
<path d="M553.027 374.914C563.562 385.341 564.849 401.37 564.849 401.37C564.849 401.37 549.055 400.493 538.52 390.066C527.985 379.639 526.699 363.61 526.699 363.61C526.699 363.61 542.493 364.487 553.027 374.914Z" fill="#3F3D56"/>
<path d="M576.671 374.914C566.136 385.341 564.85 401.37 564.85 401.37C564.85 401.37 580.643 400.493 591.178 390.066C601.713 379.639 603 363.61 603 363.61C603 363.61 587.206 364.487 576.671 374.914Z" fill="#3F3D56"/>
<path d="M418.286 571.084H199.644V573H418.286V571.084Z" fill="#3F3D56"/>
</g>
<defs>
<clipPath id="clip0_49_58">
<rect width="605" height="573" fill="white" transform="translate(-2)"/>
</clipPath>
</defs>
</svg>
